<?xml version="1.0" encoding="UTF-8"?>
<svg id="Livello_2" data-name="Livello 2" xmlns="http://www.w3.org/2000/svg" xmlns:xlink="http://www.w3.org/1999/xlink" viewBox="0 0 1096 1944.18">
  <defs>
    <style>
      .cls-1 {
        fill: #ffadad;
      }

      .cls-1, .cls-2, .cls-3 {
        stroke-width: 0px;
      }

      .cls-2 {
        fill: none;
      }

      .cls-3 {
        fill: #e0a0a0;
      }

      .cls-4 {
        clip-path: url(#clippath);
      }
    </style>
    <clipPath id="clippath">
      <rect class="cls-2" width="1096" height="1944.18"/>
    </clipPath>
  </defs>
  <g id="Livello_1-2" data-name="Livello 1">
    <g class="cls-4">
      <g>
        <rect class="cls-1" x="-29.72" y="-25.39" width="1152" height="2008"/>
        <path class="cls-3" d="m-88.33,416.51c9.71-31.02,3.27-64.14,15.4-96.66,16.92-45.38,42.77-85.19,67.13-127.2C41.76,110.61,91.8,2.07,166.95-57.56c79.15-62.81,201.91-109.76,300.94-123.26,97.08-13.23,221.2-47.79,309.77,13.33,21.6,14.91,34.67,37.48,55.01,53.1,19.12,14.68,42.97,24.44,62.26,38.16,42.29,30.09,63.03,64.86,84.65,111.42,20.41,43.96,51.33,81.62,71.48,125.91,21.89,48.12,36.13,100.44,54.26,149.83,42.47,115.66,63.51,245.26,54.37,368-5.38,72.18-2.78,142.48-.02,214.73,2.85,74.74,32.52,144.94,46.73,217.67,30.52,156.2,4.02,320.1-70.27,459.97-30.3,57.05-80.73,89.85-134.2,125.74-25.78,17.31-51.6,32.57-76.79,50.8-22.44,16.24-41.34,39.05-64.14,53.8-43.91,28.41-104.32,41.26-152.69,60.4-58.62,23.2-115.05,28.35-177.33,18.47-53.99-8.56-108.33-15.56-162.39-24-30.4-4.75-61.76,4.71-91-7.79-24.36-10.41-42.48-33.56-60.98-51.92-49.28-48.92-88.32-107.17-139.89-153.08-60.38-53.75-117.6-98.94-149.38-176-34.69-84.12-54.59-172.68-57.75-263.79-3.27-94.18,10.07-188.73,10.07-283.32,0-84.4-3.42-165.54,0-249.97,1.22-30.08,44.39-185.73-2.69-199.85-19.15-5.74-45.92,62.34-52.32,75.67-18.94,39.43-31.24,77.32-35.79,121.38-11.45,110.93-12.82,223.92-23.94,334.82-14.91,148.58-12.4,301.72-10.6,451.15,1.42,117.97,23.05,236.92,32.78,355.04,6.64,80.5,11.37,189.14,98.57,223.36,36.63,14.37,77.38,8.46,117.38,8.32,57.93-.2,116.11-1.76,174.08-2.89,133.06-2.6,264.72,5.91,397.5,5.56,116.43-.31,231.55-2.65,347.66-2.67,68.95-.01,136.32.97,204.98-5.46,42.03-3.94,75.98,1.79,96.25-39.85,20.81-42.74,19.51-96.12,24.2-142.48,6.78-66.95,3.34-133.03,2.06-199.58-1.41-73.19-5.92-147.6-7.87-220.09-2.32-86.25-19.57-176.13-15.54-262.18-1.29-85.95-8.15-172.91-8.04-259.44-3.6-279.95,1.99-571.22,23.27-853.5,3.92-51.96,10.39-102.81,11.62-154.57.62-26.26,15.89-90.18-12.22-112.05-19.85-15.44-64.96-6.8-92.72-6.8-48.57,0-96.86,1.04-144.97-2.54-63.18-4.7-127.55-10.26-190.58-11.33-60.91-1.03-122.47-1.62-183.32-4.8-9.82-.51-18.07.23-27.61-2.8-141.26,1.51-287.75-12.61-428.85-5.2-49.33,2.59-99.5,7.84-149.33,10.66-21.83,1.24-47-.92-66.86,9.58-44.78,23.66-41.8,69.7-42.47,112.63-1.44,92.98-17.92,193.37-32.09,284.5-11.76,75.64-40.07,176.35-31.48,256.5,7.64-8.32,35.87-18.3,36.92-17.86"/>
      </g>
    </g>
  </g>
</svg>